<?xml version="1.0" encoding="utf-8"?>
<!-- Generator: Adobe Illustrator 17.0.2, SVG Export Plug-In . SVG Version: 6.00 Build 0)  -->
<!DOCTYPE svg PUBLIC "-//W3C//DTD SVG 1.1//EN" "http://www.w3.org/Graphics/SVG/1.1/DTD/svg11.dtd">
<svg version="1.1" id="Livello_1" xmlns="http://www.w3.org/2000/svg" xmlns:xlink="http://www.w3.org/1999/xlink" x="0px" y="0px"
	 width="258.4px" height="255.9px" viewBox="0 0 258.4 255.9" style="enable-background:new 0 0 258.4 255.9;" xml:space="preserve"
	>
<style type="text/css">
	.st0{fill:#FC7668;}
</style>
<path class="st0" d="M53.6,28.4c40.6-87.9,264.7,50.5,189.5,117.8c-31.5,28.1-99.2,75.6-142.5,51.8c-26.2-14.4-30.8-42.3-36-69.1
	C58.8,98.8,42.6,57.9,53.6,28.4C61.5,11.2,52.5,31.3,53.6,28.4z"/>
<path class="st0" d="M53.6,28.4c32.3-46.2,59.6-12.1,60.6,88.8c0.3,33.7,24.8,86.3-27.7,85.2c-29.9-0.6-22.2-47.4-27.3-74.2
	C53.4,98.2,42.6,57.9,53.6,28.4C61.5,11.2,52.5,31.3,53.6,28.4z"/>
<path class="st0" d="M151.5,30.2c14.7-47.3,49.4-17.5,56,34.3c4.4,34.7,8,154.8-40.3,135.3c-18.8-7.6-14.6-47.6-14.7-51
	c-0.3-11-2-40-2.7-73.3C149.5,56.7,150.4,33.1,151.5,30.2z"/>
</svg>
