<?xml version="1.0" encoding="utf-8"?>
<!-- Generator: Adobe Illustrator 23.0.3, SVG Export Plug-In . SVG Version: 6.00 Build 0)  -->
<svg version="1.1" id="Layer_1" xmlns="http://www.w3.org/2000/svg" xmlns:xlink="http://www.w3.org/1999/xlink" x="0px" y="0px"
	 viewBox="0 0 500 500" style="enable-background:new 0 0 500 500;" xml:space="preserve">
<g>
	<g>
		<g>
			<path style="fill:#252526;" d="M204.5,431c-0.7,0-1.4,0-2.1,0c-7.1-0.1-12.6-0.5-17.5-1.4c-5.1-0.9-10.3-2.5-17.1-5.1
				c-4.1-1.6-8-3.4-11.7-5.3c-3.6-1.9-7-4-10.3-6.3c-3.2-2.2-6.2-4.7-9-7.3c-2.7-2.5-5.4-5.3-7.8-8.2c-2.4-2.9-4.6-6-6.7-9.2
				c-2.1-3.2-4-6.6-5.8-10.1c-1.8-3.4-3.4-7.1-5-10.9c-1.5-3.7-3-7.7-4.3-11.8c-1.3-3.9-2.5-8.1-3.7-12.7c-1.1-4-2.2-8.4-3.3-13.5
				c-1-4.3-1.9-8.8-3-14.3c-1-4.9-1.9-10-2.9-15.1c-1-5.3-1.9-10.6-2.8-15.9l-0.3-1.7c-0.9-5-1.8-10.1-2.6-15.1
				c-0.9-4.8-2-11.2-3.1-17.5c-1.2-6.3-2.3-12.5-3.5-18.3c-1.4-6.8-2.7-13.1-4-19c-0.7-3.4-1.5-6.9-2.4-10.5
				c-9.9-42.6-2.2-75,22.4-93.6l4.9-3.7l-2.6,5.5c-1.5,3.3-2.9,6.9-3.9,10.6l-0.1,0.4c-4.1,15.1-3.6,33.4,1.2,54.3
				c0.8,3.5,1.6,7.1,2.3,10.1c1.2,5.6,2.5,11.6,3.8,18.4c1.1,5.6,2.2,11.4,3.4,17.7c1,5.6,2,11.3,3,16.9l2.8,16.1
				c0.9,5.1,1.8,10.2,2.7,15.3c1,5.3,1.9,10,2.7,14.5c1.1,5.4,2,9.8,2.9,13.7c1,4.6,2.1,8.9,3.2,12.9c1.2,4.3,2.3,8.2,3.6,12
				c1.3,4,2.6,7.7,4.1,11.2c1.5,3.6,3,7.1,4.7,10.3c1.7,3.3,3.5,6.5,5.4,9.4c1.9,3,4.1,5.9,6.3,8.6c2.3,2.7,4.7,5.3,7.3,7.7
				c2.6,2.4,5.4,4.7,8.4,6.8c3,2.1,6.3,4.1,9.6,5.9c3.4,1.8,7.1,3.5,11,5c6.4,2.5,11.3,3.9,15.9,4.8c4.6,0.8,9.7,1.2,16.4,1.3
				c4.9,0.1,9.6-0.1,14.1-0.5c4.3-0.4,8.6-1,12.8-1.9c4-0.8,7.9-1.9,11.8-3.2c3.7-1.2,7.5-2.7,11.2-4.3c3.6-1.6,7.2-3.4,11-5.5
				c3.4-1.9,7.1-4,11.1-6.5c4-2.5,8-5,11.6-7.4c4.2-2.7,8.3-5.5,12.5-8.3c3.8-2.5,8.7-5.8,13.7-9.1c5.4-3.5,10.4-6.7,15.3-9.7
				c5.8-3.6,11.6-7.1,17.3-10.3c6.2-3.6,12.6-7.1,19.5-10.8c17.2-9.1,29.8-20.2,37.6-32.9l0,0c1-1.7,2-3.4,2.8-5l2.9-5.8l0,6.5
				c-0.1,29.2-17.4,53.8-50.2,71.1c-6.9,3.6-13.7,7.4-20.2,11.1c-6.1,3.5-12.1,7.1-17.9,10.7c-5,3.1-10.2,6.4-15.9,10.1
				c-4.4,2.9-8.8,5.8-13.1,8.7l-3.8,2.5c-3.4,2.3-6.8,4.6-10.3,6.8c-4.8,3.2-8.6,5.6-12.1,7.8c-4.1,2.5-7.9,4.8-11.7,6.8
				c-4,2.2-7.8,4.1-11.6,5.8c-3.9,1.8-7.9,3.3-11.9,4.6c-4.1,1.4-8.3,2.5-12.6,3.4c-4.4,0.9-8.9,1.6-13.6,2
				C213.2,430.8,208.9,431,204.5,431z M95.1,114.4c-19.9,18.3-25.7,48.1-16.7,86.7c0.8,3.6,1.6,7.2,2.4,10.5c1.3,6,2.6,12.2,4,19.1
				c1.2,5.8,2.3,12,3.5,18.3c1.2,6.3,2.3,12.7,3.2,17.5c0.9,5,1.8,10.1,2.6,15.1l0.3,1.6c0.9,5.3,1.9,10.6,2.8,15.9
				c0.9,5.1,1.9,10.2,2.8,15.1c1.1,5.5,2,10,3,14.2c1.1,5,2.2,9.4,3.3,13.4c1.2,4.6,2.4,8.6,3.7,12.5c1.3,4,2.7,7.9,4.2,11.6
				c1.5,3.7,3.1,7.3,4.9,10.7c1.7,3.4,3.6,6.7,5.6,9.8c2,3.1,4.2,6.1,6.5,8.9c2.4,2.8,4.9,5.5,7.5,8c2.7,2.5,5.6,4.9,8.7,7
				c3.2,2.2,6.5,4.3,10,6.1c3.6,1.9,7.5,3.7,11.4,5.2c6.6,2.6,11.7,4.1,16.5,5c4.8,0.9,10,1.3,17,1.4c5,0.1,9.9-0.1,14.7-0.5
				c4.5-0.4,9-1.1,13.3-2c4.1-0.9,8.2-2,12.2-3.3c3.9-1.3,7.8-2.8,11.6-4.5c3.7-1.7,7.4-3.5,11.4-5.7c3.7-2,7.5-4.2,11.5-6.7
				c3.5-2.2,7.3-4.6,12.1-7.7c3.4-2.3,6.9-4.5,10.3-6.8l3.8-2.5c4.3-2.9,8.7-5.8,13.1-8.7c5.7-3.7,10.9-7,15.9-10.1
				c5.8-3.6,11.9-7.2,18-10.7c6.5-3.8,13.4-7.5,20.3-11.2c29.3-15.5,45.9-36.9,48.3-62.1c-8.1,13.1-21,24.4-38.5,33.6
				c-6.9,3.6-13.2,7.1-19.4,10.7c-5.6,3.2-11.4,6.7-17.2,10.3c-4.9,3-9.9,6.2-15.3,9.7c-5,3.3-10,6.6-13.7,9.1
				c-4.2,2.8-8.3,5.6-12.5,8.3c-3.7,2.4-7.6,5-11.7,7.5c-4.1,2.5-7.8,4.7-11.2,6.6c-3.8,2.1-7.5,3.9-11.2,5.6
				c-3.8,1.7-7.7,3.2-11.5,4.5c-4,1.3-8,2.4-12.1,3.2c-4.2,0.9-8.6,1.5-13.1,1.9c-4.6,0.4-9.5,0.6-14.5,0.5
				c-6.9-0.1-12.1-0.5-16.9-1.4c-4.9-0.9-9.9-2.4-16.5-4.9c-4-1.5-7.8-3.3-11.3-5.2c-3.5-1.8-6.8-3.9-10-6.1c-3-2.1-6-4.5-8.7-7
				c-2.7-2.5-5.2-5.1-7.5-8c-2.3-2.8-4.5-5.7-6.5-8.8c-2-3.1-3.9-6.3-5.6-9.7c-1.7-3.3-3.3-6.8-4.8-10.5c-1.4-3.6-2.8-7.3-4.1-11.4
				c-1.3-3.8-2.4-7.8-3.6-12.2c-1.1-4.1-2.1-8.3-3.2-13c-0.9-4-1.8-8.4-2.9-13.8c-0.9-4.5-1.8-9.3-2.8-14.6
				c-0.9-5.1-1.8-10.2-2.7-15.4l-2.8-16.1c-1-5.6-2-11.3-3-16.9c-1.2-6.3-2.3-12-3.4-17.6c-1.4-6.7-2.6-12.8-3.8-18.4
				c-0.7-3-1.5-6.6-2.3-10.1c-5-21.5-5.4-40.3-1.1-55.9v-0.4l0.2-0.2C94,117.7,94.5,116,95.1,114.4z"/>
		</g>
	</g>
	<g>
		<g>
			<path style="fill:#252526;" d="M211.5,414.1c-0.6,0-1.3,0-1.9,0c-6.9-0.1-12.1-0.5-16.9-1.4c-6.2-1.1-12.1-3.2-16.5-4.9
				c-4-1.6-7.8-3.3-11.3-5.2c-3.5-1.8-6.8-3.9-9.9-6.1c-3-2.1-5.9-4.5-8.7-7c-2.7-2.5-5.2-5.1-7.5-8c-2.3-2.8-4.5-5.7-6.5-8.8
				c-1.9-3-3.8-6.2-5.6-9.7c-1.7-3.4-3.3-6.9-4.8-10.6c-1.5-3.6-2.8-7.4-4.1-11.4c-1.3-3.9-2.5-8-3.6-12.2c-1-3.9-2-8-3.2-13
				c-1-4.4-1.9-8.9-2.9-13.8c-0.9-4.5-1.8-9.2-2.8-14.6c-0.9-5.1-1.8-10.2-2.7-15.3l-0.9-5c-0.6-3.7-1.3-7.4-1.9-11.1
				c-0.9-5-1.9-11-3-16.9c-1.1-6.1-2.2-12-3.4-17.6c-1.3-6.5-2.6-12.6-3.8-18.4c-0.7-3-1.5-6.6-2.3-10.1c-7.1-30.5-5-55.2,6.4-73.6
				l5.5-8.9l-2.8,10.1c-4.2,15.2-3.8,33.6,1.1,54.7c0.8,3.5,1.6,7.1,2.3,10.1c1.2,5.6,2.5,11.6,3.8,18.4c1.1,5.6,2.2,11.4,3.4,17.7
				c1,5.6,2,11.3,3,16.9l2.8,16.1c0.9,5.1,1.8,10.2,2.7,15.3c1,5.3,1.9,10,2.7,14.5c1.1,5.4,2,9.8,2.9,13.7c1,4.6,2.1,8.9,3.2,12.9
				c1.2,4.3,2.3,8.2,3.6,12c1.3,4,2.6,7.7,4.1,11.2c1.5,3.6,3,7.1,4.7,10.3c1.7,3.3,3.5,6.5,5.4,9.4c1.9,3,4.1,5.9,6.3,8.6
				c2.3,2.7,4.7,5.3,7.3,7.7c2.6,2.4,5.4,4.7,8.4,6.8c3,2.1,6.3,4.1,9.6,5.9c3.4,1.8,7.1,3.5,11,5c6.4,2.5,11.3,3.9,15.9,4.8
				c4.6,0.8,9.7,1.2,16.4,1.3c4.9,0.1,9.6-0.1,14.1-0.5c4.3-0.4,8.6-1,12.8-1.9c4-0.8,7.9-1.9,11.8-3.2c3.7-1.2,7.5-2.7,11.2-4.3
				c3.6-1.6,7.2-3.4,11-5.5c3.4-1.9,7.1-4,11.1-6.5c4-2.5,8-5,11.6-7.4c4.2-2.7,8.3-5.5,12.5-8.3c3.8-2.5,8.7-5.8,13.7-9.1
				c5.4-3.5,10.4-6.7,15.3-9.7c5.8-3.6,11.6-7.1,17.3-10.3c6.2-3.6,12.6-7.1,19.5-10.8l0,0c17.2-9.1,29.8-20.2,37.6-32.9l5.4-8.9
				l-2.7,10c-5.5,20.9-21.1,38.2-46.2,51.5c-6.7,3.5-13.2,7.1-19.4,10.7c-5.6,3.2-11.2,6.6-17.2,10.3c-4.8,3-9.9,6.2-15.3,9.7
				c-4,2.6-8.2,5.4-13.7,9.1l-1.6,1.1c-3.6,2.4-7.2,4.8-10.9,7.2c-4.2,2.8-8,5.2-11.7,7.5c-4.1,2.5-7.8,4.7-11.3,6.6
				c-4,2.2-7.6,4-11.2,5.6c-3.8,1.7-7.7,3.2-11.5,4.5c-4,1.3-8.1,2.4-12.1,3.2c-4.1,0.9-8.6,1.5-13.1,1.9
				C220,413.9,215.8,414.1,211.5,414.1z M91.2,130.9c-6.4,16.4-6.8,37-1.1,61.4c0.8,3.5,1.6,7.1,2.3,10.1c1.3,5.8,2.5,11.8,3.8,18.4
				c1.1,5.6,2.3,11.6,3.4,17.7c1.1,5.9,2.1,11.9,3,16.9c0.7,3.7,1.3,7.4,1.9,11.1l0.9,5c0.9,5.1,1.8,10.2,2.7,15.3
				c1,5.3,1.9,10.1,2.7,14.5c1,4.9,1.9,9.4,2.9,13.7c1.1,5,2.1,9.1,3.2,12.9c1.1,4.1,2.3,8.2,3.6,12c1.3,3.9,2.6,7.6,4.1,11.2
				c1.4,3.6,3,7,4.7,10.3c1.8,3.4,3.5,6.5,5.4,9.4c1.9,3,4,5.9,6.3,8.5c2.3,2.7,4.7,5.3,7.3,7.7c2.6,2.4,5.5,4.7,8.4,6.8
				c3,2.1,6.3,4.1,9.6,5.9c3.4,1.8,7.1,3.5,11,5c4.3,1.7,10,3.7,15.9,4.8c4.6,0.8,9.7,1.2,16.4,1.3c4.9,0.1,9.6-0.1,14.1-0.5
				c4.4-0.4,8.7-1,12.8-1.9c3.9-0.8,7.9-1.9,11.8-3.2c3.7-1.2,7.4-2.7,11.2-4.3c3.5-1.6,7.1-3.3,11-5.5c3.4-1.9,7-4,11.1-6.5
				c3.6-2.2,7.4-4.7,11.6-7.4c3.6-2.4,7.2-4.8,10.9-7.2l1.6-1.1c5.5-3.7,9.7-6.5,13.7-9.1c5.5-3.6,10.5-6.7,15.4-9.8
				c6-3.7,11.7-7.1,17.3-10.3c6.2-3.6,12.8-7.2,19.5-10.8c20.2-10.7,34-24,41.1-39.6c-8,9.6-18.8,18-32.4,25.2
				c-6.9,3.6-13.2,7.1-19.4,10.7c-5.6,3.2-11.4,6.7-17.2,10.3c-4.9,3-9.9,6.2-15.3,9.7c-5,3.3-10,6.6-13.7,9.1
				c-4.2,2.8-8.3,5.6-12.5,8.3c-3.7,2.4-7.6,5-11.7,7.5c-4.1,2.5-7.8,4.7-11.2,6.6c-3.8,2.1-7.5,3.9-11.2,5.6
				c-3.8,1.7-7.7,3.2-11.5,4.5c-4,1.3-8,2.4-12.1,3.2c-4.2,0.9-8.6,1.5-13.1,1.9c-4.6,0.4-9.5,0.6-14.5,0.5
				c-6.9-0.1-12.1-0.5-16.9-1.4c-4.9-0.9-9.9-2.4-16.5-4.9c-4-1.5-7.8-3.3-11.3-5.2c-3.5-1.8-6.8-3.9-10-6.1c-3-2.1-6-4.5-8.7-7
				c-2.7-2.5-5.2-5.1-7.5-8c-2.3-2.8-4.5-5.7-6.5-8.8c-2-3.1-3.9-6.3-5.6-9.7c-1.7-3.3-3.3-6.8-4.8-10.5c-1.4-3.6-2.8-7.3-4.1-11.4
				c-1.3-3.8-2.4-7.8-3.6-12.2c-1.1-4.1-2.1-8.3-3.2-13c-0.9-4-1.8-8.4-2.9-13.8c-0.9-4.5-1.8-9.3-2.8-14.6
				c-0.9-5.1-1.8-10.2-2.7-15.4l-2.8-16.1c-1-5.6-2-11.3-3-16.9c-1.2-6.3-2.3-12-3.4-17.6c-1.4-6.7-2.6-12.8-3.8-18.4
				c-0.7-3-1.5-6.6-2.3-10.1C90.6,159.3,89.5,144.2,91.2,130.9z"/>
		</g>
	</g>
	<g>
		<g>
			<path style="fill:#252526;" d="M218.8,397c-0.6,0-1.3,0-1.9,0c-6.9-0.1-12.1-0.5-16.9-1.4c-4.9-0.9-9.9-2.4-16.5-4.9
				c-4-1.5-7.8-3.3-11.3-5.2c-3.5-1.8-6.8-3.9-10-6.1c-3-2.1-6-4.5-8.7-7c-2.7-2.5-5.2-5.1-7.5-8c-2.3-2.8-4.5-5.7-6.5-8.8
				c-2-3.1-3.9-6.3-5.6-9.7c-1.7-3.3-3.3-6.8-4.8-10.5c-1.4-3.6-2.8-7.3-4.1-11.4c-1.3-3.8-2.4-7.8-3.6-12.2
				c-1.1-4.1-2.1-8.3-3.2-13c-0.9-4-1.8-8.4-2.9-13.8c-0.9-4.5-1.8-9.3-2.8-14.6c-0.9-5.1-1.8-10.2-2.7-15.4l-2.8-16.1
				c-1-5.6-2-11.3-3-16.9c-1.2-6.3-2.3-12-3.4-17.6c-1.4-6.7-2.6-12.8-3.8-18.4c-0.7-3-1.5-6.6-2.3-10.1c-5-21.5-5.4-40.3-1.1-55.9
				v-0.4l0.2-0.2c1.1-3.8,2.4-7.4,4-10.7c7.9-16.8,21.9-28.4,41.8-34.7c21.6-6.8,49.5-6.7,80.7,0.3c31.4,7,65.5,20.9,98.8,40.1
				c40.1,23.1,72.5,51.8,91.3,80.9c19.9,30.7,23.9,59.9,11.8,84.5c-0.9,1.8-1.8,3.5-2.9,5.3c-8.1,13.2-21.1,24.7-38.7,34
				c-6.9,3.6-13.2,7.1-19.4,10.7c-5.6,3.2-11.4,6.7-17.2,10.3c-4.9,3-9.9,6.2-15.3,9.7c-5,3.3-10,6.6-13.7,9.1
				c-4.2,2.8-8.3,5.6-12.5,8.3c-3.7,2.4-7.6,5-11.7,7.5c-4.1,2.5-7.8,4.7-11.2,6.6c-3.8,2.1-7.5,3.9-11.2,5.6
				c-3.8,1.7-7.7,3.2-11.5,4.5c-4,1.3-8,2.4-12.1,3.2c-4.2,0.9-8.6,1.5-13.1,1.9C227.3,396.8,223.1,397,218.8,397z M96.2,121
				c-4.1,15.1-3.6,33.4,1.2,54.3c0.8,3.5,1.6,7.1,2.3,10.1c1.2,5.6,2.5,11.6,3.8,18.4c1.1,5.6,2.2,11.4,3.4,17.7
				c1,5.6,2,11.3,3,16.9l2.8,16.1c0.9,5.1,1.8,10.2,2.7,15.3c1,5.3,1.9,10,2.7,14.5c1.1,5.4,2,9.8,2.9,13.7c1,4.6,2.1,8.9,3.2,12.9
				c1.2,4.3,2.3,8.2,3.6,12c1.3,4,2.6,7.7,4.1,11.2c1.5,3.6,3,7.1,4.7,10.3c1.7,3.3,3.5,6.5,5.4,9.4c1.9,3,4.1,5.9,6.3,8.6
				c2.3,2.7,4.7,5.3,7.3,7.7c2.6,2.4,5.4,4.7,8.4,6.8c3,2.1,6.3,4.1,9.6,5.9c3.4,1.8,7.1,3.5,11,5c6.4,2.5,11.3,3.9,15.9,4.8
				c4.6,0.8,9.7,1.2,16.4,1.3c4.9,0.1,9.6-0.1,14.1-0.5c4.3-0.4,8.6-1,12.8-1.9c4-0.8,7.9-1.9,11.8-3.2c3.7-1.2,7.5-2.7,11.2-4.3
				c3.6-1.6,7.2-3.4,11-5.5c3.4-1.9,7.1-4,11.1-6.5c4-2.5,8-5,11.6-7.4c4.2-2.7,8.3-5.5,12.5-8.3c3.8-2.5,8.7-5.8,13.7-9.1
				c5.4-3.5,10.4-6.7,15.3-9.7c5.8-3.6,11.6-7.1,17.3-10.3c6.2-3.6,12.6-7.1,19.5-10.8c17.2-9.1,29.8-20.2,37.6-32.9
				c1-1.7,2-3.4,2.8-5.1l0,0c11.6-23.6,7.6-51.8-11.7-81.6c-18.6-28.7-50.6-57.1-90.3-80c-33-19.1-66.9-32.8-98-39.8
				c-30.7-6.9-58-7-79.1-0.3c-19.1,6-32.5,17.1-40,33.1c-1.6,3.3-2.9,6.9-3.9,10.6L96.2,121z"/>
		</g>
	</g>
</g>
</svg>
