<?xml version="1.0" encoding="utf-8"?>
<!-- Generator: Adobe Illustrator 23.0.3, SVG Export Plug-In . SVG Version: 6.00 Build 0)  -->
<svg version="1.1" id="Layer_1" xmlns="http://www.w3.org/2000/svg" xmlns:xlink="http://www.w3.org/1999/xlink" x="0px" y="0px"
	 viewBox="0 0 49.5 14.9" style="enable-background:new 0 0 49.5 14.9;" xml:space="preserve">
<g>
	<g>
		<path style="fill:#141313;" d="M5.2,2.4h-3v0.8h2.5v1.5H2.2v2.1H0.4v-6h4.8V2.4z"/>
		<path style="fill:#141313;" d="M6.7,6L6.5,6.8H4.6l2.1-6h1.9l2.2,6H8.9L8.6,6H6.7z M7.7,3L7.1,4.7h1.1L7.7,3z"/>
		<path style="fill:#141313;" d="M13.4,6.8h-1.9V2.4H9.8V0.8h5.3v1.6h-1.7V6.8z"/>
		<path style="fill:#141313;" d="M22.2,2.4h-3v0.8h2.5v1.5h-2.5v2.1h-1.8v-6h4.8V2.4z"/>
		<path style="fill:#141313;" d="M23.7,6l-0.3,0.8h-1.9l2.1-6h1.9l2.2,6h-1.9L25.6,6H23.7z M24.6,3l-0.5,1.7h1.1L24.6,3z"/>
		<path style="fill:#141313;" d="M30.3,6.8h-1.9V2.4h-1.7V0.8h5.3v1.6h-1.7V6.8z"/>
		<path style="fill:#141313;" d="M39.1,2.4h-3v0.8h2.5v1.5h-2.5v2.1h-1.8v-6h4.8V2.4z"/>
		<path style="fill:#141313;" d="M40.6,6l-0.3,0.8h-1.9l2.1-6h1.9l2.2,6h-1.9L42.5,6H40.6z M41.6,3l-0.5,1.7h1.1L41.6,3z"/>
		<path style="fill:#141313;" d="M47.3,6.8h-1.9V2.4h-1.7V0.8H49v1.6h-1.7V6.8z"/>
	</g>
	<g>
		<path style="fill:#141313;" d="M5.2,9.9h-3v0.8h2.5v1.5H2.2v2.1H0.4v-6h4.8V9.9z"/>
		<path style="fill:#141313;" d="M11,9.9H7.7v0.7h2.9V12H7.7v0.8h3.4v1.6H5.9v-6H11V9.9z"/>
		<path style="fill:#141313;" d="M15.1,10.1c-0.1-0.4-0.3-0.5-0.7-0.5c-0.4,0-0.6,0.2-0.6,0.4c0,0.2,0.1,0.2,0.3,0.3l1.1,0.3
			c1.4,0.4,1.9,0.9,1.9,1.8c0,1.2-1.1,2.1-2.7,2.1c-0.9,0-1.7-0.3-2.2-0.9c-0.3-0.3-0.4-0.7-0.5-1.3h1.8c0,0.5,0.3,0.7,0.9,0.7
			c0.5,0,0.8-0.2,0.8-0.5c0-0.2-0.1-0.3-0.5-0.4l-1.2-0.4c-0.7-0.2-1-0.4-1.3-0.7c-0.2-0.3-0.4-0.6-0.4-1c0-1.1,1-1.9,2.5-1.9
			c0.9,0,1.7,0.3,2.1,0.8c0.2,0.3,0.3,0.6,0.4,1.1H15.1z"/>
		<path style="fill:#141313;" d="M20.9,14.4h-1.9V9.9h-1.7V8.4h5.3v1.6h-1.7V14.4z"/>
		<path style="fill:#141313;" d="M25.1,14.4h-1.9v-6h1.9V14.4z"/>
		<path style="fill:#141313;" d="M27.4,14.4l-1.8-6h1.9l0.6,2.2c0.1,0.5,0.3,1.2,0.4,1.7c0.2-1,0.2-1,0.4-1.7l0.6-2.2h1.8l-1.8,6
			H27.4z"/>
		<path style="fill:#141313;" d="M33,13.5l-0.3,0.8h-1.9l2.1-6h1.9l2.2,6h-1.9l-0.3-0.8H33z M34,10.5l-0.5,1.7h1.1L34,10.5z"/>
		<path style="fill:#141313;" d="M39.4,12.8h2.7v1.6h-4.5v-6h1.9V12.8z"/>
	</g>
</g>
</svg>
