<?xml version="1.0" encoding="utf-8"?>
<!-- Generator: Adobe Illustrator 17.0.2, SVG Export Plug-In . SVG Version: 6.00 Build 0)  -->
<!DOCTYPE svg PUBLIC "-//W3C//DTD SVG 1.1//EN" "http://www.w3.org/Graphics/SVG/1.1/DTD/svg11.dtd">
<svg version="1.1" xmlns="http://www.w3.org/2000/svg" xmlns:xlink="http://www.w3.org/1999/xlink" x="0px" y="0px" width="225px"
	 height="223.4px" viewBox="0 0 225 223.4" style="enable-background:new 0 0 225 223.4;" xml:space="preserve">
<style type="text/css">
	.st0{fill:#F44C58;}
	.st1{fill:#FC7668;}
</style>
<g id="Livello_1_copia">
	<path d="M4.8,42.2c41.8-90.5,272.5,51.9,195.1,121.2c-32.4,29-102.1,77.8-146.7,53.3c-27-14.8-31.7-43.6-37.1-71.2
		C10.2,114.6-6.4,72.6,4.8,42.2C13,24.6,3.7,45.2,4.8,42.2z"/>
	<path d="M4.8,42.2c33.2-47.5,61.3-12.4,62.4,91.5c0.3,34.7,25.5,88.8-28.5,87.7C8,220.7,15.9,172.6,10.6,145
		C4.7,114.1-6.4,72.6,4.8,42.2C13,24.6,3.7,45.2,4.8,42.2z"/>
	<path d="M105.7,44.1c15.1-48.7,50.9-18,57.6,35.3c4.5,35.7,8.2,159.4-41.5,139.3c-19.4-7.8-15-49-15.1-52.5
		c-0.3-11.3-2.1-41.2-2.7-75.5C103.5,71.3,104.6,47.1,105.7,44.1z"/>
</g>
<g id="Livello_1_copia_2">
	<path class="st0" d="M14.2,36.5c40.6-87.9,264.7,50.5,189.5,117.8c-31.5,28.1-99.2,75.6-142.5,51.8c-26.2-14.4-30.8-42.3-36-69.1
		C19.4,106.9,3.3,66,14.2,36.5C22.1,19.4,13.1,39.4,14.2,36.5z"/>
	<path class="st0" d="M14.2,36.5c32.3-46.2,59.6-12.1,60.6,88.8c0.3,33.7,24.8,86.3-27.7,85.2c-29.9-0.6-22.2-47.4-27.3-74.2
		C14,106.3,3.3,66,14.2,36.5C22.1,19.4,13.1,39.4,14.2,36.5z"/>
	<path class="st0" d="M112.1,38.3c14.7-47.3,49.4-17.5,56,34.3c4.4,34.7,8,154.8-40.3,135.3c-18.8-7.6-14.6-47.6-14.7-51
		c-0.3-11-2-40-2.7-73.3C110.1,64.8,111.1,41.2,112.1,38.3z"/>
</g>
<g id="Livello_1">
	<path class="st1" d="M20.2,28.4c40.6-87.9,264.7,50.5,189.5,117.8c-31.5,28.1-99.2,75.6-142.5,51.8c-26.2-14.4-30.8-42.3-36-69.1
		C25.4,98.8,9.3,57.9,20.2,28.4C28.1,11.2,19.1,31.3,20.2,28.4z"/>
	<path class="st1" d="M20.2,28.4c32.3-46.2,59.6-12.1,60.6,88.8c0.3,33.7,24.8,86.3-27.7,85.2C23.3,201.8,31,155,25.8,128.2
		C20,98.2,9.3,57.9,20.2,28.4C28.1,11.2,19.1,31.3,20.2,28.4z"/>
	<path class="st1" d="M118.1,30.2c14.7-47.3,49.4-17.5,56,34.3c4.4,34.7,8,154.8-40.3,135.3c-18.8-7.6-14.6-47.6-14.7-51
		c-0.3-11-2-40-2.7-73.3C116.1,56.7,117.1,33.1,118.1,30.2z"/>
</g>
</svg>
